# xmcd
#
# Track frame offsets:
#	150
#	16181
#	31561
#	48263
#	63108
#	86515
#	102281
#	120129
#	131968
#	144480
#	167573
#
# Disc length: 2389 seconds
#
# Revision: 0
# Processed by: cddbd v1.5.2PL0 Copyright (c) Steve Scherf et al.
# Submitted via: audiograbber 1.83.01
#
DISCID=7c09530b
DTITLE=George Baker Selection - River Song
DYEAR=1976
DGENRE=Rock
TTITLE0=Silver
TTITLE1=You're My Brightest Star
TTITLE2=If You Understand
TTITLE3=Anny You're The Woman That I Love
TTITLE4=River Song
TTITLE5=Gone By The Wind
TTITLE6=Wild Bird
TTITLE7=All I Have To Do Is Dream
TTITLE8=Libertad
TTITLE9=Look For The Sun
TTITLE10=For Esther
EXTD=
EXTT0=
EXTT1=
EXTT2=
EXTT3=
EXTT4=
EXTT5=
EXTT6=
EXTT7=
EXTT8=
EXTT9=
EXTT10=
PLAYORDER=
